<svg width="69mm" height="60mm" version="1.1" viewBox="0 0 69 60" xmlns="http://www.w3.org/2000/svg"><g transform="translate(-61 -54)" stroke-width=".26"><path d="m61 70h2.4c1.8 0 2.9 0.9 2.9 2.4 0 0.95-0.48 1.7-1.3 2.1l2.5 3.5h-1.9l-2.1-3.2h-0.87v3.2h-1.6zm1.6 1.4v2h0.93c0.69 0 1.1-0.37 1.1-1 0-0.61-0.4-0.98-1.1-0.98z"/><path d="m68 70h4.7v1.4h-3v1.9h2.6v1.4h-2.6v2h3v1.4h-4.7zm1.6-0.69 1.3-1.5h1.7l-1.5 1.5z"/><path d="m75 70h2.6c1.8 0 2.8 0.9 2.8 2.4 0 1.5-1.1 2.4-2.8 2.4h-1v3.2h-1.6zm1.6 1.4v2h1.1c0.69 0 1.1-0.37 1.1-1 0-0.61-0.42-0.98-1.1-0.98z"/><path d="m87 70h1.6v4.9c0 2.1-1.2 3.4-3.3 3.4-2 0-3.2-1.3-3.2-3.4v-4.9h1.6v5c0 1.1 0.61 1.7 1.6 1.7 1 0 1.6-0.64 1.6-1.7v-5z"/><path d="m90 70h2.3c1.7 0 2.7 0.82 2.7 2.2 0 0.64-0.29 1.2-0.85 1.6 0.85 0.37 1.3 1.1 1.3 1.9 0 1.5-1.1 2.4-3 2.4h-2.4v-8zm1.6 1.4v1.7h0.69c0.61 0 0.98-0.32 0.98-0.87 0-0.53-0.34-0.87-0.98-0.87zm0 3.1v2.1h0.93c0.77 0 1.2-0.4 1.2-1.1 0-0.66-0.45-1-1.2-1z"/><path d="m97 70h1.6v6.5h3v1.5h-4.7z"/><path d="m103 70h1.6v8h-1.6z"/><path d="m116 78c0.16 0 0.4-0.026 0.58-0.079v1.4c-0.26 0.11-0.5 0.16-0.85 0.16-0.9 0-1.7-0.37-2.5-1.1l-0.95-0.85c-0.34 0.079-0.71 0.13-1.1 0.13-2.5 0-4.3-1.9-4.3-4.2 0-2.3 1.7-4.2 4.3-4.2 2.5 0 4.2 1.9 4.2 4.2 0 1.3-0.58 2.6-1.6 3.3l0.48 0.45c0.64 0.56 1.2 0.77 1.7 0.77zm-2.2-4.6c0-1.5-1.1-2.7-2.6-2.7-1.5 0-2.6 1.2-2.6 2.7 0 1.5 1.1 2.7 2.6 2.7 1.5 0 2.6-1.2 2.6-2.7z"/><path d="m121 70h1.6v4.9c0 2.1-1.2 3.4-3.3 3.4-2 0-3.2-1.3-3.2-3.4v-4.9h1.6v5c0 1.1 0.61 1.7 1.6 1.7 1 0 1.6-0.64 1.6-1.7z"/><path d="m125 70h4.7v1.4h-3v1.9h2.6v1.4h-2.6v2h3v1.4h-4.7z"/><path d="m61 81h4.7v1.4h-3v1.9h2.6v1.4h-2.6v3.4h-1.6z"/><path d="m67 81h2.4c1.8 0 2.9 0.9 2.9 2.4 0 0.95-0.48 1.7-1.3 2.1l2.5 3.5h-1.9l-2.1-3.2h-0.85v3.2h-1.6zm1.6 1.4v2h0.93c0.69 0 1.1-0.37 1.1-1 0-0.61-0.4-0.98-1.1-0.98z"/><path d="m77 81h2.1l3 8h-1.7l-0.77-2.1h-3.2l-0.77 2.1h-1.7zm2.1 4.5-1.1-3-1.1 3z"/><path d="m83 81h2.1l3.6 5.7v-5.7h1.6v8h-2.1l-3.6-5.7v5.7h-1.6z"/><path d="m98 87 1.3 0.98c-0.61 0.85-1.6 1.4-2.8 1.6l-1 1.7h-1.4l1-1.7c-2.1-0.37-3.5-2.1-3.5-4.2 0-2.3 1.7-4.2 4.3-4.2 1.5 0 2.6 0.66 3.4 1.6l-1.3 1c-0.45-0.66-1.2-1.1-2.1-1.1-1.5 0-2.6 1.2-2.6 2.7 0 1.5 1.1 2.7 2.6 2.7 0.95 0 1.7-0.42 2.1-1.1z"/><path d="m103 81h2.1l3 8h-1.7l-0.77-2.1h-3.2l-0.77 2.1h-1.7zm2.2 4.5-1.1-3-1.1 3z"/><path d="m110 81h1.6v8h-1.6z"/><path d="m114 87c0.48 0.61 1.1 0.98 1.8 0.98 0.64 0 1-0.34 1-0.93 0-1.4-3.7-1.1-3.7-3.8 0-1.3 1-2.3 2.6-2.3 1.2 0 2.1 0.53 2.8 1.3l-1.2 1.1c-0.48-0.61-1-1-1.6-1-0.56 0-0.93 0.37-0.93 0.85 0 1.4 3.7 1.1 3.7 3.8-0.026 1.5-1.2 2.4-2.6 2.4-1.3 0-2.3-0.5-3-1.3z"/><path d="m120 81h4.7v1.4h-3v1.9h2.6v1.4h-2.6v2h3v1.4h-4.7z"/><path d="m87 111c0.21 0 0.4 0.16 0.32 0.58l-1 0.24c0.19-0.48 0.48-0.82 0.69-0.82m0.58 1.6h-0.21c-0.26 0.29-0.53 0.53-0.79 0.53-0.26 0-0.42-0.16-0.42-0.53 0-0.16 0.026-0.32 0.053-0.45l1.6-0.53c0.32-0.74-0.053-1.1-0.5-1.1-0.77 0-1.6 1.3-1.6 2.4 0 0.5 0.24 0.79 0.61 0.79 0.45 0 0.9-0.42 1.3-1.1m-0.34-2.4 1.1-1.1v-0.13h-0.61l-0.71 1.2zm-3.5 0.74h0.53l-0.85 2.4c-0.079 0.21 0.026 0.4 0.24 0.4 0.48 0 1.3-0.48 1.6-1.1h-0.16c-0.21 0.24-0.64 0.53-0.98 0.61l0.79-2.2h0.79l0.11-0.34h-0.79l0.29-0.85h-0.32l-0.56 0.85-0.66 0.11zm-0.74-0.11c0.053-0.21-0.079-0.34-0.19-0.34-0.48 0-1 0.42-1.2 1h0.16c0.16-0.21 0.42-0.45 0.66-0.5l-0.9 2.3c-0.079 0.21 0.079 0.34 0.19 0.34 0.45 0 0.98-0.42 1.2-1h-0.16c-0.16 0.21-0.42 0.45-0.66 0.5zm0.16-1.2c0.21 0 0.4-0.16 0.4-0.4 0-0.21-0.19-0.4-0.4-0.4-0.21 0-0.4 0.19-0.4 0.4 0.026 0.21 0.19 0.4 0.4 0.4m-5.2 3.6c-0.11 0.26 0 0.42 0.26 0.42 0.16 0 0.24-0.053 0.29-0.21l0.64-1.6c0.29-0.34 0.87-0.74 1.1-0.74 0.16 0 0.16 0.13 0.026 0.34l-0.95 1.8c-0.11 0.19 0.026 0.4 0.24 0.4 0.48 0 1-0.42 1.2-1h-0.16c-0.16 0.21-0.42 0.45-0.66 0.5l0.82-1.7c0.11-0.21 0.16-0.42 0.16-0.58 0-0.26-0.16-0.45-0.42-0.45-0.4 0-0.82 0.45-1.3 1v-0.42c0-0.32-0.11-0.58-0.37-0.58-0.19 0-0.34 0.16-0.5 0.37v0.053c0.32-0.026 0.45 0.45 0.21 0.93zm0-2.1c0.11-0.37 0.053-0.71-0.24-0.71-0.34 0-0.42 0.26-0.79 1v-0.42c0-0.32-0.11-0.58-0.37-0.58-0.32 0-0.64 0.5-0.85 1h0.16c0.16-0.24 0.32-0.37 0.42-0.37 0.13 0 0.21 0.21 0 0.69l-0.64 1.4c-0.11 0.26 0 0.42 0.26 0.42 0.16 0 0.24-0.053 0.29-0.21l0.64-1.6c0.19-0.21 0.34-0.4 0.53-0.61zm-3.6-0.26c0.21 0 0.4 0.16 0.32 0.58l-1 0.24c0.16-0.48 0.48-0.82 0.69-0.82m0.56 1.6h-0.21c-0.26 0.29-0.53 0.53-0.79 0.53s-0.42-0.16-0.42-0.53c0-0.16 0.026-0.32 0.053-0.45l1.6-0.53c0.32-0.74-0.053-1.1-0.5-1.1-0.77 0-1.6 1.3-1.6 2.4 0 0.5 0.24 0.79 0.61 0.79 0.48 0 0.93-0.42 1.3-1.1m-3.8-1.6h0.53l-0.85 2.4c-0.079 0.21 0.026 0.4 0.24 0.4 0.48 0 1.3-0.48 1.6-1.1h-0.16c-0.21 0.24-0.64 0.53-0.98 0.61l0.79-2.2h0.79l0.11-0.34h-0.79l0.29-0.85h-0.32l-0.56 0.85-0.66 0.11zm-3 1.8c0-0.71 0.79-1.7 1.2-1.7 0.11 0 0.19 0 0.26 0.026l-0.48 1.2c-0.26 0.32-0.69 0.74-0.87 0.74-0.11 0-0.16-0.079-0.16-0.32m2.5-2.4-0.24-0.026-0.26 0.26h-0.053c-1.3 0-2.5 1.5-2.5 2.6 0 0.32 0.19 0.48 0.48 0.48 0.34 0 0.69-0.5 1.1-1l-0.026 0.19c-0.053 0.53 0.11 0.82 0.4 0.82 0.32 0 0.64-0.5 0.85-1h-0.16c-0.16 0.24-0.32 0.37-0.42 0.37-0.13 0-0.21-0.21 0-0.69zm-2.9 0.85c0.11-0.37 0.053-0.71-0.24-0.71-0.34 0-0.42 0.26-0.79 1v-0.42c0-0.32-0.11-0.58-0.37-0.58-0.32 0-0.64 0.5-0.85 1h0.16c0.16-0.24 0.32-0.37 0.42-0.37 0.13 0 0.21 0.21 0 0.69l-0.64 1.4c-0.11 0.26 0 0.42 0.26 0.42 0.16 0 0.24-0.053 0.29-0.21l0.64-1.6c0.19-0.21 0.34-0.4 0.53-0.61zm-4.5 2.4 0.053-0.19c-0.79-0.16-0.87-0.16-0.58-1l0.32-0.87h0.87c0.4 0 0.4 0.16 0.34 0.58h0.21l0.53-1.4h-0.21c-0.19 0.34-0.34 0.58-0.77 0.58h-0.87l0.45-1.2c0.13-0.4 0.21-0.48 0.74-0.48h0.37c0.56 0 0.61 0.16 0.61 0.69h0.21l0.19-0.95h-3.2l-0.053 0.19c0.64 0.13 0.69 0.19 0.4 1l-0.71 1.9c-0.29 0.79-0.42 0.87-1.1 1l-0.053 0.19z"/><path d="m79 104c0.21 0 0.4 0.16 0.32 0.58l-1 0.24c0.19-0.45 0.48-0.82 0.69-0.82m0.58 1.6h-0.21c-0.26 0.29-0.53 0.53-0.79 0.53-0.26 0-0.42-0.16-0.42-0.53 0-0.16 0.026-0.32 0.053-0.45l1.6-0.53c0.32-0.74-0.053-1.1-0.5-1.1-0.77 0-1.6 1.3-1.6 2.4 0 0.5 0.24 0.79 0.61 0.79 0.45 0 0.9-0.45 1.3-1.1m-0.34-2.4 1.1-1.1v-0.13h-0.61l-0.71 1.2zm-3.5 0.74h0.53l-0.85 2.4c-0.079 0.21 0.026 0.4 0.24 0.4 0.48 0 1.3-0.48 1.6-1.1h-0.16c-0.21 0.24-0.64 0.53-0.98 0.61l0.79-2.2h0.79l0.11-0.34h-0.79l0.29-0.85h-0.32l-0.56 0.85-0.66 0.11zm-0.74-0.11c0.053-0.21-0.079-0.34-0.19-0.34-0.48 0-1 0.42-1.2 1h0.16c0.16-0.21 0.42-0.45 0.66-0.5l-0.9 2.3c-0.079 0.21 0.079 0.34 0.19 0.34 0.45 0 0.98-0.42 1.2-1h-0.16c-0.16 0.21-0.42 0.45-0.66 0.5zm0.16-1.2c0.21 0 0.4-0.16 0.4-0.4 0-0.21-0.19-0.4-0.4-0.4-0.21 0-0.4 0.19-0.4 0.4 0.026 0.21 0.19 0.4 0.4 0.4m-3.1 3.5 1.6-4.3-0.053-0.053-1 0.11v0.13l0.21 0.16c0.19 0.13 0.13 0.26-0.053 0.71l-1.3 3.4c-0.11 0.19 0.026 0.4 0.24 0.4 0.48 0 0.98-0.42 1.2-1h-0.16c-0.16 0.21-0.45 0.45-0.71 0.48m-3.1-0.4c0-0.71 0.79-1.7 1.2-1.7 0.11 0 0.19 0 0.26 0.026l-0.48 1.2c-0.26 0.32-0.69 0.74-0.87 0.74-0.079 0-0.16-0.11-0.16-0.32m2.5-2.4-0.24-0.026-0.26 0.26h-0.053c-1.3 0-2.5 1.5-2.5 2.6 0 0.32 0.19 0.48 0.48 0.48 0.34 0 0.69-0.5 1.1-1l-0.026 0.19c-0.053 0.53 0.11 0.82 0.4 0.82 0.32 0 0.64-0.5 0.85-1h-0.16c-0.16 0.24-0.32 0.37-0.42 0.37-0.13 0-0.21-0.21 0-0.69zm-6 3.9c0-0.32 0.29-0.5 0.74-0.69 0.13 0.079 0.34 0.16 0.64 0.24 0.45 0.16 0.61 0.21 0.61 0.34 0 0.29-0.48 0.5-1.1 0.5-0.56 0.026-0.85-0.11-0.85-0.4m1.2-1.9c-0.19 0-0.26-0.16-0.26-0.34 0-0.53 0.29-1.3 0.71-1.3 0.19 0 0.26 0.16 0.26 0.34 0.026 0.5-0.26 1.3-0.71 1.3m1.3 1.6c0-0.37-0.34-0.5-0.87-0.69-0.48-0.13-0.69-0.19-0.69-0.34 0-0.13 0.11-0.26 0.29-0.37 0.77-0.053 1.3-0.74 1.3-1.3 0-0.13-0.026-0.24-0.053-0.32h0.66l0.11-0.34h-1c-0.13-0.079-0.26-0.11-0.42-0.11-0.82 0-1.3 0.71-1.3 1.3 0 0.45 0.29 0.71 0.64 0.79-0.37 0.16-0.58 0.37-0.58 0.61 0 0.13 0.053 0.24 0.16 0.32-0.87 0.26-1.2 0.56-1.2 0.98 0 0.4 0.53 0.58 1.2 0.58 1.1 0 1.9-0.58 1.9-1.1m-4.1-2.5c0.4 0 0.4 0.16 0.34 0.58h0.21l0.53-1.4h-0.21c-0.19 0.34-0.34 0.58-0.77 0.58h-0.87l0.42-1.2c0.13-0.4 0.21-0.48 0.74-0.48h0.37c0.56 0 0.61 0.16 0.61 0.69h0.21l0.19-0.95h-3.2l-0.053 0.19c0.64 0.13 0.69 0.19 0.4 1l-0.71 1.9c-0.29 0.79-0.42 0.87-1.1 1l-0.053 0.19h3.6l0.64-1h-0.24c-0.42 0.4-0.93 0.77-1.6 0.77-0.95 0-0.87-0.053-0.56-0.93l0.34-0.93zm0.48-2.5 1.1-0.79v-0.13h-0.69l-0.64 0.9h0.19z"/><path d="m79 97c0.21 0 0.4 0.16 0.32 0.58l-1 0.24c0.16-0.48 0.45-0.82 0.69-0.82m0.56 1.6h-0.21c-0.26 0.29-0.53 0.53-0.79 0.53-0.26 0-0.42-0.16-0.42-0.53 0-0.16 0.026-0.32 0.053-0.45l1.6-0.53c0.32-0.74-0.053-1.1-0.5-1.1-0.77 0-1.6 1.3-1.6 2.4 0 0.5 0.24 0.79 0.61 0.79 0.48-0.026 0.93-0.45 1.3-1.1m-0.32-2.4 1.1-1.1v-0.13h-0.61l-0.71 1.2zm-3.4 0.77h0.42l-0.85 2.4c-0.079 0.21 0.026 0.4 0.24 0.4 0.48 0 1.3-0.48 1.6-1.1h-0.16c-0.21 0.24-0.64 0.53-0.98 0.61l0.79-2.2h0.79l0.11-0.34h-0.79l0.29-0.85h-0.32l-0.56 0.85-0.56 0.11zm-0.42 0.26c0.11-0.37 0.053-0.71-0.24-0.71-0.34 0-0.42 0.26-0.79 1v-0.42c0-0.32-0.11-0.58-0.37-0.58-0.32 0-0.64 0.5-0.85 1h0.13c0.16-0.24 0.32-0.37 0.42-0.37 0.13 0 0.21 0.21 0 0.69l-0.64 1.4c-0.11 0.26 0 0.42 0.26 0.42 0.16 0 0.24-0.053 0.29-0.21l0.64-1.6c0.19-0.21 0.34-0.4 0.53-0.61zm-3.6-0.29c0.21 0 0.4 0.16 0.32 0.58l-1 0.24c0.16-0.48 0.45-0.82 0.69-0.82m0.56 1.6h-0.21c-0.26 0.29-0.53 0.53-0.79 0.53-0.26 0-0.42-0.16-0.42-0.53 0-0.16 0.026-0.32 0.053-0.45l1.6-0.53c0.32-0.74-0.053-1.1-0.5-1.1-0.77 0-1.6 1.3-1.6 2.4 0 0.5 0.24 0.79 0.61 0.79 0.45-0.026 0.93-0.45 1.3-1.1m-4 0.64c-0.16 0-0.4-0.16-0.4-0.26 0-0.053 0.079-0.21 0.16-0.45l0.26-0.69c0.29-0.34 0.71-0.69 0.95-0.69 0.16 0 0.26 0.11 0.26 0.32 0 0.61-0.58 1.8-1.2 1.8m1.9-2.1c0-0.48-0.19-0.66-0.5-0.66-0.42 0-0.79 0.42-1.2 0.95l0.98-2.6-0.053-0.053-1 0.11v0.13l0.21 0.16c0.19 0.13 0.13 0.29-0.053 0.71l-1.1 2.7c-0.079 0.21-0.16 0.42-0.16 0.5 0 0.29 0.37 0.56 0.74 0.56 0.79-0.026 2.1-1.5 2.1-2.6m-3.2-0.29c0.053-0.21-0.079-0.34-0.19-0.34-0.48 0-1 0.42-1.2 1h0.16c0.16-0.21 0.42-0.45 0.66-0.5l-0.9 2.3c-0.079 0.21 0.079 0.34 0.19 0.34 0.45 0 0.98-0.42 1.2-1h-0.16c-0.16 0.21-0.42 0.45-0.66 0.5zm0.19-1.2c0.21 0 0.4-0.16 0.4-0.4 0-0.21-0.19-0.4-0.4-0.4-0.21 0-0.4 0.19-0.4 0.4 0 0.24 0.16 0.4 0.4 0.4m-2.4-0.37h-2.1l-0.053 0.19c0.64 0.13 0.69 0.19 0.4 1l-0.69 1.9c-0.29 0.79-0.42 0.87-1.1 1l-0.053 0.19h3.3l0.71-1.2h-0.24c-0.4 0.45-0.87 0.98-1.6 0.98-0.56 0-0.61-0.11-0.32-0.93l0.69-1.9c0.29-0.79 0.42-0.87 1.1-1z"/><path d="m73 63c0.11-0.11 0.24-0.24 0.34-0.37 0.21-0.24 0.42-0.48 0.66-0.69 0.079-0.079 0.16-0.13 0.21-0.19 0.026-0.026 0.026-0.053 0.053-0.079-0.11 0.053-0.16 0.13-0.26 0.16-0.026 0-0.053-0.026-0.026-0.053 0.079-0.053 0.13-0.11 0.21-0.16h-0.026c-0.026 0-0.026-0.026-0.026-0.053-0.26-0.053-0.45 0.13-0.64 0.29-0.053 0.026-0.079-0.026-0.11-0.026-0.29 0.11-0.53 0.37-0.82 0.48v-0.053c-0.13 0.053-0.24 0.11-0.37 0.13-0.19 0.053-0.34 0.026-0.5 0.026-0.24 0.026-0.48 0.079-0.74 0.13h-0.026c-0.13 0.026-0.26 0.079-0.37 0.16h-0.026l-0.026 0.026c-0.053 0.053-0.079 0.079-0.13 0.13-0.13 0.053-0.21 0.19-0.34 0.26h-0.026c-0.11 0.11-0.21 0.21-0.32 0.32h-0.053c-0.026 0 0 0 0-0.026 0.026-0.026 0.026-0.053 0.053-0.079 0.026-0.026 0.026-0.053 0.053-0.11 0.026-0.053 0.053-0.079 0.079-0.13v-0.026h-0.026c0.11-0.11 0.21-0.19 0.34-0.26-0.026 0-0.026 0-0.026-0.026s0.026-0.026 0.026-0.053v-0.026l-0.026-0.026c-0.026 0.026-0.079 0.053-0.11 0.053-0.053 0.053-0.079 0.13-0.16 0.13h-0.053v-0.026-0.026-0.026s0-0.026 0.026-0.026v-0.026c0-0.026 0.026-0.026 0.026-0.053v-0.026l0.026-0.026c0-0.026 0-0.026-0.026-0.026 0.026-0.053 0.079-0.079 0.13-0.13 0.079-0.026 0.16-0.079 0.24-0.13l0.026-0.026c-0.11 0.026-0.21 0.079-0.32 0.16 0 0-0.026 0-0.026 0.026 0 0-0.026 0-0.053-0.026v-0.026c0.026-0.053 0.079-0.053 0.13-0.11 0.026 0 0.053 0 0.053 0.026 0.64-0.5 1.5-0.37 2.3-0.64 0.053-0.053 0.13-0.079 0.19-0.13 0.11-0.053 0.19-0.13 0.29-0.21 0.16-0.13 0.29-0.26 0.34-0.45 0-0.026-0.026-0.053-0.026-0.053-0.26 0.29-0.56 0.5-0.87 0.66-0.42 0.21-0.87 0.19-1.3 0.24 0.026-0.053 0.053-0.053 0.11-0.053 0-0.053 0.053-0.079 0.079-0.13h0.053c0.026 0 0.026-0.053 0.053-0.053 0.053 0 0.11-0.026 0.079-0.026-0.053-0.079-0.19 0.053-0.29 0 0.053-0.053 0.026-0.11 0.053-0.13h0.079c0-0.053 0.053-0.079 0.053-0.079 0.29-0.19 0.58-0.32 0.87-0.48-0.053 0-0.11 0.053-0.16 0.026 0.053 0 0-0.053 0.053-0.053 0.21-0.053 0.4-0.19 0.64-0.26-0.079 0-0.13 0.053-0.21 0 0.053-0.026 0.053-0.053 0.13-0.053v-0.053c0-0.026 0.026-0.026 0.053-0.026-0.026 0-0.053-0.026-0.053-0.026 0.026-0.053 0.079-0.026 0.13-0.053-0.026 0-0.053 0-0.053-0.026 0.053-0.079 0.16-0.11 0.26-0.13-0.026-0.053-0.079 0-0.079-0.053 0-0.026 0.026-0.026 0.053-0.026h-0.053c-0.053-0.026-0.026-0.053-0.026-0.079 0.13-0.13 0.13-0.32 0.19-0.48-0.026 0-0.053 0-0.053-0.026-0.21 0.21-0.53 0.29-0.82 0.37h-0.11c-0.11 0.053-0.24 0.053-0.34-0.026-0.079-0.053-0.13-0.11-0.21-0.16-0.16-0.11-0.32-0.19-0.5-0.24-0.45 0.13-0.98 0.053-1.5 0.079 0.21-0.13 0.48-0.13 0.71-0.21 0.34-0.11 0.66-0.21 1-0.21-0.053-0.026-0.13 0-0.21 0-0.29-0.026-0.56 0.053-0.87 0.13-0.21 0.053-0.37 0.13-0.58 0.16-0.13 0.053-0.19 0.16-0.32 0.13v-0.053c0.21-0.24 0.45-0.48 0.77-0.5 0.37-0.053 0.71 0 1.1 0.053 0.26 0.026 0.5 0.079 0.77 0.13 0.11 0 0.13 0.16 0.21 0.19 0.13 0.053 0.24 0 0.37 0.079 0-0.053-0.026-0.079 0-0.13 0.079-0.079 0.19 0.026 0.26-0.026 0.16-0.11-0.13-0.29-0.21-0.42 0-0.026 0.026-0.053 0.026-0.053 0.16 0.13 0.29 0.29 0.48 0.4 0.11 0.053 0.34 0.11 0.29-0.026-0.11-0.21-0.29-0.4-0.45-0.61v-0.079c-0.053 0-0.053-0.026-0.053-0.053v-0.079c-0.079-0.053-0.053-0.13-0.11-0.19-0.053-0.11-0.026-0.24-0.053-0.37-0.026-0.13-0.053-0.21-0.079-0.34-0.053-0.34-0.13-0.64-0.19-0.95-0.053-0.37 0.21-0.69 0.4-1 0.13-0.24 0.29-0.48 0.56-0.64 0.053-0.24 0.21-0.45 0.37-0.64s0.42-0.32 0.61-0.4c0.29-0.13 0.53-0.21 0.53-0.21h-14v11h9.8c0.37-0.26 0.77-0.4 1.3-0.66 0.26-0.079 0.82-0.34 1-0.56zm-3.1-1.4c-0.053 0-0.13 0.026-0.11-0.026 0.026-0.11 0.16-0.11 0.24-0.13 0.053-0.026 0.11-0.053 0.13-0.053 0.053 0.053 0.11 0.053 0.13 0.079-0.11 0.13-0.26 0.079-0.4 0.13zm-3.1-0.45s-0.026-0.026-0.026-0.053c0.26-0.34 0.45-0.66 0.64-1 0.26-0.13 0.48-0.34 0.69-0.56 0.34-0.37 0.71-0.69 1.1-0.87 0.16-0.053 0.37-0.053 0.53 0.026-0.053 0.079-0.16 0.053-0.24 0.13-0.026 0-0.053 0-0.053-0.026 0.026-0.026 0.026-0.053 0.026-0.053-0.21 0.21-0.48 0.32-0.64 0.58-0.13 0.21-0.21 0.45-0.45 0.53-0.079 0.026 0.026-0.053-0.026-0.053-0.66 0.37-1.1 0.85-1.6 1.4zm1.7-1.3c-0.026 0.053-0.053 0.053-0.053 0.079-0.026 0.053-0.053 0.053-0.079 0.079-0.026 0-0.053 0-0.053-0.026 0.026-0.079 0.079-0.16 0.16-0.19 0.026 0.026 0.026 0.026 0.026 0.053zm0.93 3c0 0.026-0.026 0.053-0.053 0.053 0.026 0 0.053 0.026 0.026 0.026-0.053 0.053-0.079 0.079-0.16 0.11h-0.026c-0.026 0.026-0.053 0.053-0.079 0.079-0.026 0.026-0.13 0-0.11-0.026 0.053-0.053 0.11-0.11 0.16-0.13 0.026-0.026 0.053-0.053 0.079-0.079l0.053-0.053c0.026 0 0.13-0.026 0.11 0.026zm-0.37-0.16c-0.079 0.053-0.16 0.11-0.24 0.16-0.079 0.053-0.19 0.079-0.26 0.13-0.079 0.053-0.026-0.026-0.026 0-0.079 0.053-0.13 0.11-0.21 0.16l-0.053 0.053c-0.026 0.026-0.026 0.026-0.053 0.053l-0.026 0.026s-0.053 0-0.053-0.026-0.026 0-0.026 0.026c0 0-0.026 0-0.026 0.026h-0.026-0.026c-0.026 0.026-0.053 0.053-0.079 0.053-0.053 0.026-0.079 0.079-0.11 0.13-0.026 0.053 0 0.026-0.026 0.026h-0.026c-0.026 0 0-0.026-0.026-0.026 0.026-0.026 0.053-0.053 0.053-0.079l0.026-0.026c0-0.026 0.026-0.026 0.026-0.053v-0.026c0.026-0.026 0.053-0.053 0.053-0.079 0-0.026 0.026-0.026 0.026-0.053 0 0 0.026-0.026 0.026-0.053s0.026-0.026 0.026-0.053v-0.053-0.026c0.026-0.026 0.053-0.079 0.079-0.11-0.026 0.026-0.053 0.053-0.079 0.053-0.026 0.026-0.053 0-0.026-0.026 0.026 0 0.026-0.026 0.053-0.053 0.026-0.026 0.053-0.079 0.11-0.11 0.026-0.026 0.053-0.026 0.053-0.053 0.026-0.026 0.026-0.026 0.053-0.053 0.19-0.19 0.5-0.19 0.77-0.29 0.11-0.053 0.21 0.026 0.32 0 0.053 0 0.13 0 0.19 0.053-0.11 0.079-0.26 0.19-0.45 0.29zm0.42-1.4c-0.026-0.026 0.053 0 0.079-0.053h-0.16c-0.026 0-0.026-0.026-0.026-0.053-0.11 0.026-0.21 0.053-0.32 0.079-0.13 0.053-0.26 0.13-0.42 0.19-0.21 0.079-0.4 0.26-0.64 0.34-0.026 0-0.026-0.026-0.026-0.053 0.026-0.053 0.11-0.079 0.13-0.13 0-0.026 0-0.053-0.026-0.053 0.16-0.21 0.37-0.34 0.58-0.53v-0.053c0.053-0.079 0.16-0.13 0.21-0.21 0.026-0.053 0.11-0.13 0.21-0.19-0.026-0.026-0.053-0.026-0.053-0.053-0.079 0-0.16 0.053-0.24-0.026 0.026-0.026 0.079-0.053 0.13-0.079-0.026 0-0.026 0-0.053-0.026-0.026-0.053 0.026-0.079 0.11-0.11 0.079-0.026 0.19-0.026 0.24-0.079-0.13-0.026-0.29 0.053-0.45-0.053 0.11-0.26 0.26-0.48 0.5-0.61 0.026 0 0.053 0 0.053 0.026 0 0.11-0.053 0.19-0.16 0.21 0.16 0.053 0.32 0.053 0.48 0.13-0.026 0.053-0.053 0.026-0.079 0.026 0.11 0.053 0.21 0.026 0.32 0.11-0.053 0.053-0.13 0-0.19 0 0.64 0.19 1.3 0.32 1.8 0.71-0.45 0.21-0.9 0.32-1.4 0.42-0.053 0-0.11 0-0.16-0.026 0 0.026 0 0.053-0.026 0.053-0.079 0-0.13 0-0.21 0.053-0.053 0.053-0.19 0.079-0.24 0.026z" fill="#000091"/><path d="m90 54h-11s0.026 0 0.11 0.053c0.11 0.053 0.21 0.11 0.29 0.16 0.16 0.079 0.29 0.19 0.37 0.32 0.053 0.053 0.11 0.19 0.053 0.26-0.053 0.11-0.053 0.26-0.16 0.29-0.13 0.053-0.29 0.053-0.42 0.053-0.079 0-0.16-0.026-0.24-0.053 0.29 0.13 0.58 0.26 0.79 0.53 0.026 0.053 0.11 0.053 0.19 0.053v0.079c-0.053 0.053-0.079 0.053-0.053 0.13h0.053c0.11-0.053 0.079-0.24 0.21-0.19 0.11 0.053 0.13 0.21 0.079 0.29-0.079 0.079-0.16 0.13-0.24 0.21-0.026 0.053-0.026 0.11 0 0.13 0.053 0.079 0.079 0.16 0.11 0.24 0.053 0.13 0.079 0.29 0.13 0.45 0.079 0.29 0.16 0.61 0.13 0.9 0 0.16-0.079 0.29-0.026 0.45s0.13 0.29 0.21 0.42c0.079 0.13 0.16 0.21 0.21 0.32 0.13 0.21 0.34 0.4 0.24 0.64-0.053 0.13-0.29 0.13-0.42 0.21-0.13 0.11-0.026 0.26 0.053 0.37 0.11 0.19-0.13 0.29-0.26 0.37 0.053 0.053 0.13 0.053 0.13 0.079 0.026 0.11 0.13 0.16 0.053 0.26-0.079 0.13-0.32 0.19-0.21 0.37 0.079 0.13 0.026 0.29-0.026 0.45-0.053 0.19-0.21 0.26-0.37 0.29-0.13 0.053-0.26 0.053-0.37 0.026-0.053-0.026-0.079-0.053-0.13-0.053-0.34-0.053-0.69-0.13-1-0.13-0.11 0.026-0.21 0.053-0.29 0.079-0.079 0.079-0.16 0.13-0.24 0.21-0.026 0.026-0.026 0.026-0.053 0.053l-0.026 0.026s0 0.026-0.026 0.026c-0.053 0.079-0.11 0.16-0.16 0.24v0.026s0 0.026-0.026 0.026c-0.053 0.13-0.11 0.24-0.16 0.37-0.13 0.45-0.079 0.85 0.026 0.95 0.026 0.026 0.66 0.21 1.1 0.42 0.21 0.079 0.34 0.16 0.48 0.24h11v-11z" fill="#e1000f"/><path d="m79 58c0.079 0.026 0.21 0.026 0.21 0.053-0.053 0.16-0.29 0.21-0.4 0.37h-0.053c-0.053 0.053-0.053 0.13-0.11 0.13-0.053-0.026-0.13 0-0.19 0.026 0.079 0.079 0.19 0.13 0.29 0.13 0.026 0 0.053 0.053 0.053 0.079 0 0 0.026 0 0.053-0.026 0.026 0 0.053 0 0.053 0.026v0.079c-0.053 0.079-0.16 0.053-0.24 0.053 0.16 0.053 0.32 0.053 0.45 0s0-0.24 0.079-0.34c-0.053 0 0-0.053-0.053-0.053 0.053-0.053 0.079-0.11 0.13-0.13 0.053 0 0.11-0.026 0.13-0.053 0-0.053-0.079-0.053-0.053-0.11 0.13-0.079 0.21-0.21 0.19-0.32-0.026-0.053-0.19-0.053-0.29-0.11-0.11-0.053-0.21 0-0.34 0.026-0.11 0-0.21 0.053-0.29 0.079-0.13 0.053-0.26 0.13-0.37 0.21 0.13-0.053 0.29-0.079 0.45-0.13 0.079 0 0.19-0.053 0.29 0z" fill="#9d9d9c"/></g></svg>