<?xml version="1.0" encoding="UTF-8"?>
<svg version="1.1" xmlns="http://www.w3.org/2000/svg" width="336" height="55">
<path d="M0 0 C110.88 0 221.76 0 336 0 C336 18.15 336 36.3 336 55 C225.12 55 114.24 55 0 55 C0 36.85 0 18.7 0 0 Z " fill="#FCFDFD" transform="translate(0,0)"/>
<path d="M0 0 C1.29550781 -0.03867188 1.29550781 -0.03867188 2.6171875 -0.078125 C5.57524649 0.30891076 6.91701784 1.29875995 9.125 3.25 C9.455 2.26 9.785 1.27 10.125 0.25 C11.115 0.25 12.105 0.25 13.125 0.25 C13.21238991 4.62487331 13.265524 8.99952078 13.3125 13.375 C13.33763672 14.6125 13.36277344 15.85 13.38867188 17.125 C13.39833984 18.32382812 13.40800781 19.52265625 13.41796875 20.7578125 C13.4336792 21.85754395 13.44938965 22.95727539 13.46557617 24.09033203 C12.95438434 28.83287303 11.15388662 32.1000679 8 35.625 C3.97850748 37.89801751 0.64340058 38.044095 -3.875 37.25 C-9.39224138 34.49137931 -9.39224138 34.49137931 -10.75 31 C-10.79125 30.4225 -10.8325 29.845 -10.875 29.25 C-9.555 29.25 -8.235 29.25 -6.875 29.25 C-6.25625 29.91 -5.6375 30.57 -5 31.25 C-2.99803587 33.52667769 -2.99803587 33.52667769 0.0625 33.625 C3.08328709 33.2551077 5.3818934 32.5408737 8.125 31.25 C8.455 28.94 8.785 26.63 9.125 24.25 C8.485625 24.745 7.84625 25.24 7.1875 25.75 C3.06969227 27.76688542 -0.36802735 28.10695959 -4.875 27.25 C-8.73789464 25.1876071 -11.22412464 22.28465054 -12.875 18.25 C-13.62392176 13.95090104 -13.85572396 9.92264576 -11.6015625 6.078125 C-7.97065843 1.79188703 -5.69660068 0.10142316 0 0 Z " fill="#959595" transform="translate(189.875,13.75)"/>
<path d="M0 0 C14 0 14 0 19 4 C19.92613435 7.09437829 19.69138518 9.85995896 19 13 C17.125 15.5625 17.125 15.5625 14 17 C10.59055312 17.30711048 7.43821327 17.18337137 4 17 C4 21.95 4 26.9 4 32 C2.68 32 1.36 32 0 32 C0 21.44 0 10.88 0 0 Z " fill="#2392B8" transform="translate(145,13)"/>
<path d="M0 0 C13 0 13 0 18 3 C19 4 19 4 19.25 7.8125 C19.21431913 10.6567752 19.0655184 11.87832297 17.6875 14.4375 C14.6664065 17.2348088 11.72769873 17.11334674 7.8125 17.0625 C6.224375 17.041875 4.63625 17.02125 3 17 C3 21.95 3 26.9 3 32 C2.01 32 1.02 32 0 32 C0 21.44 0 10.88 0 0 Z " fill="#168BB4" transform="translate(38,13)"/>
<path d="M0 0 C2.8100346 1.79363911 4.50940468 3.01880935 6 6 C6.55512815 10.63213493 6.6364242 13.98172127 4.125 18 C0.91235339 21.0236674 -1.50831271 21.48366769 -5.95703125 21.39453125 C-8.84301297 20.83720017 -10.485233 19.36213234 -12.1484375 16.98046875 C-13.85204007 13.01842057 -13.84951126 9.18488743 -13 5 C-9.68365168 -0.18179424 -5.81750054 -1.30453042 0 0 Z " fill="#FCFCFC" transform="translate(224,17)"/>
<path d="M0 0 C3.9638703 1.2131143 6.08753305 4.06521347 8.00390625 7.61328125 C8.79233939 11.29263592 8.72055126 13.28644937 6.92578125 16.609375 C4.94315861 19.31641745 3.26412873 21.22759913 0 22.2265625 C-3.77066091 22.4769859 -5.73357939 21.77188368 -8.99609375 19.80078125 C-11.92632382 15.13072708 -11.97785866 10.98079922 -10.99609375 5.61328125 C-8.16828285 1.10645763 -5.19824457 -0.34523446 0 0 Z " fill="#FBFBFB" transform="translate(191.99609375,16.38671875)"/>
<path d="M0 0 C3.9162455 2.20288809 6.25289859 4.86212823 8 9 C8.84471978 13.92907914 8.58956963 17.73949428 5.75 21.9375 C3.24671858 25.20567297 0.71589716 26.73100622 -3.3671875 27.37109375 C-7.7346323 27.4867426 -10.98636013 27.56264275 -14.5 24.75 C-18.52298435 20.32471721 -19.45584492 17.13597932 -19.3203125 11.25 C-18.70792241 6.94833303 -16.3268682 4.20598216 -13.19921875 1.36328125 C-9.14505837 -1.14986613 -4.5996946 -0.61511518 0 0 Z M-13 4.875 C-15.82299337 9.28592714 -15.99192872 12.90213684 -15 18 C-13.69189603 21.04224181 -12.73530771 21.83454806 -10 24 C-7.16892805 24.73059921 -4.83704666 24.68776889 -2 24 C0.8100346 22.20636089 2.50940468 20.98119065 4 18 C4.55512815 13.36786507 4.6364242 10.01827873 2.125 6 C-1.11372097 2.95179203 -3.48341893 2.57409112 -7.95703125 2.671875 C-10.28972337 2.91072758 -10.28972337 2.91072758 -13 4.875 Z " fill="#999999" transform="translate(226,14)"/>
<path d="M0 0 C3.5 0.625 3.5 0.625 6.4375 2.5625 C8.85365674 6.15012667 9.2425028 8.28204919 8.98046875 12.53125 C8.5 14.625 8.5 14.625 6.4375 17.1875 C2.79606724 18.96947773 0.51044618 19.13542042 -3.5 18.625 C-6.6850357 16.86484869 -7.33296972 16.12609084 -8.5 12.625 C-8.98371102 8.27160085 -8.98792815 6.31992797 -6.4375 2.6875 C-3.5 0.625 -3.5 0.625 0 0 Z " fill="#F7FBFC" transform="translate(74.5,23.375)"/>
<path d="M0 0 C3 1.5 3 1.5 5 3 C5 2.01 5 1.02 5 0 C5.99 0 6.98 0 8 0 C8 7.59 8 15.18 8 23 C7.34 23 6.68 23 6 23 C6 22.01 6 21.02 6 20 C5.175 20.66 4.35 21.32 3.5 22 C-0.4781731 24.63330607 -3.29401891 24.5975849 -8 24 C-11.58122392 21.82012457 -13.40494691 19.82672826 -15 16 C-15.70094203 11.4438768 -15.63197296 8.02423204 -13.1875 4.0625 C-8.9770569 0.09265365 -5.66082936 -0.75991678 0 0 Z M-12 8 C-12.57167363 12.00171543 -12.36938628 14.22764686 -10.625 17.875 C-9.17239958 20.09664825 -9.17239958 20.09664825 -7 21 C-3.06702181 21.37103568 -0.63529963 21.31089131 2.9375 19.5625 C5.5486366 16.31836059 5.72982459 14.27935673 5.48046875 10.1953125 C4.67421425 6.51145046 3.09242064 5.0396817 0 3 C-5.83484685 1.95806306 -8.59949417 3.15685534 -12 8 Z " fill="#2191B7" transform="translate(78,21)"/>
<path d="M0 0 C0.99 0 1.98 0 3 0 C3.01981934 0.55985596 3.03963867 1.11971191 3.06005859 1.6965332 C3.15537783 4.23565854 3.26502753 6.77396888 3.375 9.3125 C3.4059375 10.19357422 3.436875 11.07464844 3.46875 11.98242188 C3.50742188 12.82998047 3.54609375 13.67753906 3.5859375 14.55078125 C3.6173584 15.33106689 3.6487793 16.11135254 3.68115234 16.9152832 C3.89587889 19.30155768 3.89587889 19.30155768 6 22 C11.13299673 22.73050089 11.13299673 22.73050089 15.59130859 20.75317383 C17.35064293 18.56361059 17.41828721 17.33504127 17.51171875 14.55078125 C17.54716797 13.70322266 17.58261719 12.85566406 17.61914062 11.98242188 C17.64169922 11.10134766 17.66425781 10.22027344 17.6875 9.3125 C17.72166016 8.41982422 17.75582031 7.52714844 17.79101562 6.60742188 C17.87345648 4.40507329 17.94261551 2.20312062 18 0 C18.99 0 19.98 0 21 0 C21 8.25 21 16.5 21 25 C20.34 25 19.68 25 19 25 C19 24.34 19 23.68 19 23 C18.360625 23.495 17.72125 23.99 17.0625 24.5 C12.96480027 26.5070366 9.49017765 26.62946416 5 26 C1.71068486 24.27310955 1.1859733 23.5579199 0 20 C-0.08106686 18.44578271 -0.10756898 16.88832973 -0.09765625 15.33203125 C-0.09443359 14.43935547 -0.09121094 13.54667969 -0.08789062 12.62695312 C-0.07951172 11.69818359 -0.07113281 10.76941406 -0.0625 9.8125 C-0.05798828 8.87212891 -0.05347656 7.93175781 -0.04882812 6.96289062 C-0.03704626 4.64186288 -0.02059558 2.32096356 0 0 Z " fill="#929292" transform="translate(238,15)"/>
<path d="M0 0 C1.83984375 0.07421875 1.83984375 0.07421875 4 1 C5.37890625 4.01953125 5.37890625 4.01953125 6.5625 7.8125 C7.91781625 12.10063173 9.0279072 15.57993959 12 19 C12.19110352 18.45996338 12.38220703 17.91992676 12.57910156 17.36352539 C13.45296557 14.92359402 14.3510629 12.49329929 15.25 10.0625 C15.55035156 9.21236328 15.85070312 8.36222656 16.16015625 7.48632812 C16.61455078 6.27299805 16.61455078 6.27299805 17.078125 5.03515625 C17.35043945 4.2862915 17.62275391 3.53742676 17.90332031 2.76586914 C19 1 19 1 21.12011719 0.24780273 C21.74047852 0.16602783 22.36083984 0.08425293 23 0 C21.36759192 6.86142257 19.23255083 13.12832069 16.18359375 19.4921875 C15.01825231 21.96132678 13.98935925 24.45593337 13 27 C11.19140625 26.97265625 11.19140625 26.97265625 9 26 C7.77214485 23.45122489 6.82425757 21.10255308 5.9375 18.4375 C5.57301758 17.40012695 5.57301758 17.40012695 5.20117188 16.34179688 C4.70943087 14.94222633 4.22425441 13.54033236 3.74560547 12.13623047 C2.97858619 9.9386474 2.1532428 7.76950476 1.31640625 5.59765625 C0 2 0 2 0 0 Z " fill="#989898" transform="translate(262,14)"/>
<path d="M0 0 C0 0.66 0 1.32 0 2 C-0.639375 2.2475 -1.27875 2.495 -1.9375 2.75 C-4.18741541 3.81562433 -4.18741541 3.81562433 -4.75 6.125 C-4.8325 6.74375 -4.915 7.3625 -5 8 C-3.35 8 -1.7 8 0 8 C0 8.99 0 9.98 0 11 C-1.65 11 -3.3 11 -5 11 C-5 18.92 -5 26.84 -5 35 C-6.32 35 -7.64 35 -9 35 C-9 27.08 -9 19.16 -9 11 C-9.99 11 -10.98 11 -12 11 C-12 10.01 -12 9.02 -12 8 C-11.01 8 -10.02 8 -9 8 C-8.896875 7.236875 -8.79375 6.47375 -8.6875 5.6875 C-7.36510955 0.5181555 -5.16592045 -0.41885841 0 0 Z " fill="#C5C5C5" transform="translate(306,6)"/>
<path d="M0 0 C4.95 0 9.9 0 15 0 C15 0.99 15 1.98 15 3 C11.04 3 7.08 3 3 3 C3 6.3 3 9.6 3 13 C6.96 13 10.92 13 15 13 C15 13.99 15 14.98 15 16 C11.04 16 7.08 16 3 16 C3 21.28 3 26.56 3 32 C2.01 32 1.02 32 0 32 C0 21.44 0 10.88 0 0 Z " fill="#158BB3" transform="translate(116,13)"/>
<path d="M0 0 C0.99 0 1.98 0 3 0 C5.31 5.28 7.62 10.56 10 16 C12.64280641 13.35719359 13.71943083 10.27123173 15.125 6.875 C15.40214844 6.21628906 15.67929688 5.55757812 15.96484375 4.87890625 C16.64759391 3.25443173 17.32437433 1.62745052 18 0 C18.99 0 19.98 0 21 0 C17.5083413 11.02629064 12.85142162 21.51267156 8 32 C7.01 32 6.02 32 5 32 C5.4640625 30.4221875 5.4640625 30.4221875 5.9375 28.8125 C6.288125 27.554375 6.63875 26.29625 7 25 C7.24492188 24.21625 7.48984375 23.4325 7.7421875 22.625 C8.09294969 19.05360313 6.9261407 17.29425142 5.1875 14.1875 C2.65184869 9.428006 1.01550208 5.28061084 0 0 Z " fill="#198CB4" transform="translate(90,21)"/>
<path d="M0 0 C9.625 -0.25 9.625 -0.25 13 2 C13.39299693 5.07847595 13.64840923 7.09180467 11.80078125 9.6796875 C9.37161885 11.46072197 7.79015233 11.30351243 4.8125 11.1875 C3.224375 11.125625 1.63625 11.06375 0 11 C0 7.37 0 3.74 0 0 Z " fill="#EBF5F8" transform="translate(148,16)"/>
<path d="M0 0 C9.625 -0.25 9.625 -0.25 13 2 C13.39299693 5.07847595 13.64840923 7.09180467 11.80078125 9.6796875 C9.37161885 11.46072197 7.79015233 11.30351243 4.8125 11.1875 C3.224375 11.125625 1.63625 11.06375 0 11 C0 7.37 0 3.74 0 0 Z " fill="#ECF5F9" transform="translate(41,16)"/>
<path d="M0 0 C2.475 0.495 2.475 0.495 5 1 C7.72502965 0.62277985 7.72502965 0.62277985 10 0 C10 1.32 10 2.64 10 4 C8.35 4.66 6.7 5.32 5 6 C4.67 12.93 4.34 19.86 4 27 C2.68 27 1.36 27 0 27 C0 18.09 0 9.18 0 0 Z " fill="#D1D1D1" transform="translate(309,14)"/>
<path d="M0 0 C0.33 0 0.66 0 1 0 C1.09796875 0.59167969 1.1959375 1.18335937 1.296875 1.79296875 C2.59195912 8.70643569 2.59195912 8.70643569 7 14 C11.09747218 14.65796175 11.09747218 14.65796175 15 14 C17.7295585 11.52093031 17.7295585 11.52093031 20 9 C22.3125 9.1875 22.3125 9.1875 24 10 C20.08688525 16.42868852 20.08688525 16.42868852 16 18 C11.9113711 18.64095668 7.77291608 18.95574033 4.05078125 16.94921875 C1.90551444 15.18833388 0.24677514 13.49355028 -1 11 C-1.09534254 9.3146804 -1.12985758 7.62550734 -1.125 5.9375 C-1.12757813 5.03902344 -1.13015625 4.14054687 -1.1328125 3.21484375 C-1 1 -1 1 0 0 Z " fill="#959595" transform="translate(209,23)"/>
<path d="M0 0 C0.33 0 0.66 0 1 0 C1 2.97 1 5.94 1 9 C5.29 9 9.58 9 14 9 C14 9.99 14 10.98 14 12 C10.04 12 6.08 12 2 12 C2 16.95 2 21.9 2 27 C1.34 27 0.68 27 0 27 C0 18.09 0 9.18 0 0 Z " fill="#0983AE" transform="translate(117,17)"/>
<path d="M0 0 C3.70925653 0.50125088 5.66383702 1.02791873 8 4 C8.67794648 7.06770781 8.58947938 9.91913605 8 13 C5.875 15.5625 5.875 15.5625 3 17 C-0.3125 17.25 -0.3125 17.25 -3 17 C-2.21625 16.38125 -1.4325 15.7625 -0.625 15.125 C1.96837647 13.10141339 1.96837647 13.10141339 4 11 C4.16681109 7.91652174 4.16681109 7.91652174 4 5 C1.56612247 3.78306124 -0.41838846 3.68040104 -3.125 3.4375 C-4.03507813 3.35371094 -4.94515625 3.26992188 -5.8828125 3.18359375 C-6.58148438 3.12300781 -7.28015625 3.06242187 -8 3 C-8 2.67 -8 2.34 -8 2 C-5.36 1.67 -2.72 1.34 0 1 C0 0.67 0 0.34 0 0 Z " fill="#1A8CB4" transform="translate(156,13)"/>
<path d="M0 0 C0.99 0 1.98 0 3 0 C3 7.92 3 15.84 3 24 C2.01 24 1.02 24 0 24 C0 16.08 0 8.16 0 0 Z " fill="#2291B7" transform="translate(136,21)"/>
<path d="M0 0 C0.66 0 1.32 0 2 0 C2 7.26 2 14.52 2 22 C1.34 22 0.68 22 0 22 C0 21.01 0 20.02 0 19 C-1.98 19.99 -1.98 19.99 -4 21 C-3.125 17.125 -3.125 17.125 -2 16 C-1.92755947 13.98035801 -1.91622812 11.95832876 -1.9375 9.9375 C-1.95103516 8.28041016 -1.95103516 8.28041016 -1.96484375 6.58984375 C-1.97644531 5.73519531 -1.98804687 4.88054688 -2 4 C-1.34 4 -0.68 4 0 4 C0 2.68 0 1.36 0 0 Z " fill="#158BB3" transform="translate(84,22)"/>
<path d="M0 0 C3 1.5 3 1.5 5 3 C5 2.01 5 1.02 5 0 C5.99 0.33 6.98 0.66 8 1 C7.34 1 6.68 1 6 1 C6 2.32 6 3.64 6 5 C5.01 5.33 4.02 5.66 3 6 C2.01 5.34 1.02 4.68 0 4 C-3.91919777 3.78622558 -7.22513845 4.02133219 -11 5 C-11.66 4.67 -12.32 4.34 -13 4 C-8.87570711 -0.12429289 -5.60774559 -0.98361667 0 0 Z " fill="#2290B7" transform="translate(78,21)"/>
<path d="M0 0 C0.66 0 1.32 0 2 0 C2 0.66 2 1.32 2 2 C2.66 2 3.32 2 4 2 C3.84152588 2.5662207 3.68305176 3.13244141 3.51977539 3.71582031 C2.99214152 6.0345345 2.795844 8.17358397 2.68359375 10.546875 C2.64169922 11.39121094 2.59980469 12.23554688 2.55664062 13.10546875 C2.51732422 13.97816406 2.47800781 14.85085937 2.4375 15.75 C2.39431641 16.63816406 2.35113281 17.52632812 2.30664062 18.44140625 C2.20086385 20.62745963 2.09877454 22.81362089 2 25 C1.34 25 0.68 25 0 25 C0 16.75 0 8.5 0 0 Z " fill="#B9B9B9" transform="translate(310,15)"/>
<path d="M0 0 C0.66 0 1.32 0 2 0 C2.33 0.99 2.66 1.98 3 3 C2.360625 3.495 1.72125 3.99 1.0625 4.5 C-1.81515269 7.98806387 -1.70230736 10.53461041 -2 15 C-2.33 15 -2.66 15 -3 15 C-3.33 13.02 -3.66 11.04 -4 9 C-4.33 11.64 -4.66 14.28 -5 17 C-5.33 17 -5.66 17 -6 17 C-6.50224661 10.72191742 -6.19082691 7.05364422 -2 2 C-1.34 1.34 -0.68 0.68 0 0 Z " fill="#9F9F9F" transform="translate(213,15)"/>
<path d="M0 0 C0 0.66 0 1.32 0 2 C-0.639375 2.2475 -1.27875 2.495 -1.9375 2.75 C-4.18741541 3.81562433 -4.18741541 3.81562433 -4.75 6.125 C-4.8325 6.74375 -4.915 7.3625 -5 8 C-3.35 8 -1.7 8 0 8 C0 8.33 0 8.66 0 9 C-3.34252724 9.07427838 -5.8035914 9.06546953 -9 8 C-8.64005447 5.3364031 -8.28838998 3.41816548 -6.75 1.1875 C-4.41988723 -0.39364795 -2.75498245 -0.22337696 0 0 Z " fill="#C5C5C5" transform="translate(306,6)"/>
<path d="M0 0 C0.66 0 1.32 0 2 0 C3.20272819 2.40545638 3.10071472 3.94996953 3.0625 6.625 C3.05347656 7.44226563 3.04445312 8.25953125 3.03515625 9.1015625 C3.02355469 9.72804688 3.01195312 10.35453125 3 11 C1.68 11 0.36 11 -1 11 C-1.0270043 9.54176788 -1.04639787 8.08339325 -1.0625 6.625 C-1.07410156 5.81289063 -1.08570313 5.00078125 -1.09765625 4.1640625 C-1 2 -1 2 0 0 Z " fill="#9E9E9E" transform="translate(231,21)"/>
<path d="M0 0 C1.32 0.33 2.64 0.66 4 1 C5.046875 3.06640625 5.046875 3.06640625 5.75 5.5625 C5.99234375 6.38878906 6.2346875 7.21507812 6.484375 8.06640625 C6.65453125 8.70449219 6.8246875 9.34257812 7 10 C5.35 9.67 3.7 9.34 2 9 C1.34 6.03 0.68 3.06 0 0 Z " fill="#9F9F9F" transform="translate(262,14)"/>
<path d="M0 0 C0.33 0.99 0.66 1.98 1 3 C0.2884375 3.495 0.2884375 3.495 -0.4375 4 C-2.85791615 7.09813267 -2.68198917 10.12026792 -3 14 C-3.33 14 -3.66 14 -4 14 C-4 12.02 -4 10.04 -4 8 C-4.66 8 -5.32 8 -6 8 C-6.33 8.99 -6.66 9.98 -7 11 C-6.75 7.625 -6.75 7.625 -6 4 C-4.0625 2.6875 -4.0625 2.6875 -2 2 C-1.34 1.34 -0.68 0.68 0 0 Z " fill="#A2A2A2" transform="translate(184,16)"/>
<path d="M0 0 C0.66 0 1.32 0 2 0 C2 3.96 2 7.92 2 12 C1.01 12.495 1.01 12.495 0 13 C-0.66 10.03 -1.32 7.06 -2 4 C-1.34 4 -0.68 4 0 4 C0 2.68 0 1.36 0 0 Z " fill="#0481AC" transform="translate(84,22)"/>
<path d="M0 0 C0.99 0 1.98 0 3 0 C6 5.75 6 5.75 6 8 C5.01 8.33 4.02 8.66 3 9 C2.01 6.03 1.02 3.06 0 0 Z " fill="#2E96BA" transform="translate(90,21)"/>
<path d="M0 0 C0.99 0 1.98 0 3 0 C2.01 2.97 1.02 5.94 0 9 C-0.99 8.67 -1.98 8.34 -3 8 C-1.125 2.25 -1.125 2.25 0 0 Z " fill="#2D96BA" transform="translate(108,21)"/>
<path d="M0 0 C0.66 0 1.32 0 2 0 C2 3.3 2 6.6 2 10 C1.34 10 0.68 10 0 10 C-1.125 3.375 -1.125 3.375 0 0 Z " fill="#8F8F8F" transform="translate(178,24)"/>
<path d="M0 0 C0.33 0.66 0.66 1.32 1 2 C0.01 3.485 0.01 3.485 -1 5 C-1.39013716 6.9896995 -1.73202649 8.99019869 -2 11 C-4 9 -4 9 -4.375 6.0625 C-4 3 -4 3 -2 1.125 C-1.34 0.75375 -0.68 0.3825 0 0 Z " fill="#0D86B0" transform="translate(67,25)"/>
<path d="M0 0 C0.99 0.33 1.98 0.66 3 1 C2.34 1 1.68 1 1 1 C1 2.32 1 3.64 1 5 C0.01 5.33 -0.98 5.66 -2 6 C-3.32 4.68 -4.64 3.36 -6 2 C-2 2 -2 2 0 3 C0 2.01 0 1.02 0 0 Z " fill="#379CBF" transform="translate(83,21)"/>
<path d="M0 0 C1.32 0 2.64 0 4 0 C4 1.32 4 2.64 4 4 C2.35 4.33 0.7 4.66 -1 5 C-0.67 3.35 -0.34 1.7 0 0 Z " fill="#C8C8C8" transform="translate(315,14)"/>
<path d="M0 0 C0.99 0 1.98 0 3 0 C3 1.98 3 3.96 3 6 C2.01 6 1.02 6 0 6 C0 4.02 0 2.04 0 0 Z " fill="#959595" transform="translate(168,39)"/>
<path d="M0 0 C2.64 0 5.28 0 8 0 C7.67 0.66 7.34 1.32 7 2 C4.67843403 2.40729228 2.3431213 2.74438677 0 3 C0 2.01 0 1.02 0 0 Z " fill="#8E8E8E" transform="translate(215,14)"/>
<path d="M0 0 C2.475 0.495 2.475 0.495 5 1 C4.67 1.99 4.34 2.98 4 4 C2.68 4 1.36 4 0 4 C0 2.68 0 1.36 0 0 Z " fill="#1E8FB6" transform="translate(135,12)"/>
<path d="M0 0 C0.66 0 1.32 0 2 0 C2.125 2.875 2.125 2.875 2 6 C1.34 6.66 0.68 7.32 0 8 C-0.98120464 4.94736336 -0.98120464 3.05263664 0 0 Z " fill="#0583AE" transform="translate(55,19)"/>
</svg>
