<svg xmlns="http://www.w3.org/2000/svg" viewBox="0 0 24 24" aria-hidden="true">
    <path
        d="M5,3H19A2,2 0 0,1 21,5V19A2,2 0 0,1 19,21H5A2,2 0 0,1 3,19V5A2,2 0 0,1 5,3M18,5H15.5A3.5,3.5 0 0,0 12,8.5V11H10V14H12V21H15V14H18V11H15V9A1,1 0 0,1 16,8H18V5Z"
        style="fill:#4267b2;fill-opacity:1"></path>
    <path
        style="fill:#ffffff;fill-opacity:1;stroke:none;stroke-width:0.01016949;stroke-miterlimit:4;stroke-dasharray:none"
        d="m 12.061017,17.430508 v -3.457627 h -1.016949 -1.016949 v -1.474576 -1.474576 h 1.008377 1.008378 l 0.03399,-1.70339 c 0.03242,-1.6245342 0.04715,-1.7301776 0.318155,-2.2820428 0.349686,-0.712089 1.208029,-1.5207084 1.873247,-1.7647303 0.359126,-0.1317381 0.906405,-0.1906588 2.088356,-0.224835 l 1.601695,-0.046313 v 1.4852317 1.4852318 h -1.146864 c -1.6904,0 -1.903983,0.2277909 -1.903983,2.0306316 v 1.020216 h 1.525423 1.525424 v 1.474576 1.474576 H 16.433893 14.90847 v 3.457627 3.457628 h -1.423729 -1.423729 z">
    </path>
</svg>