<svg xmlns="http://www.w3.org/2000/svg" xmlns:xlink="http://www.w3.org/1999/xlink" width="512" height="430" class="img-fluid mb-3 mb-md-0" role="img" viewBox="0 0 512 430">
    <title>
        Inea
    </title>
    <defs>
        <clipPath id="_clipPath_jbEvLodEYXW8R1k9WC3AAIqQiuv0nmiM">
            <rect width="527.266" height="428.757"/>
        </clipPath>
    </defs>
    <g clip-path="url(#_clipPath_jbEvLodEYXW8R1k9WC3AAIqQiuv0nmiM)">
        <g>
            <path d="M 49.26 244.03 L 215.89 135.735 C 242.037 118.742 284.368 118.932 310.361 136.16 L 475.848 245.838 C 501.841 263.065 501.716 290.848 475.569 307.841 L 308.939 416.135 C 282.792 433.129 240.461 432.939 214.468 415.711 L 48.981 306.033 C 22.988 288.806 23.113 261.023 49.26 244.03 Z" style="stroke:none;fill:#3B1E61;stroke-miterlimit:10"/>
            <defs>
                <filter id="pcyVfwFMzSewUPR1AfBOfMZysmo5476N" width="400%" height="400%" x="-200%" y="-200%" color-interpolation-filters="sRGB" filterUnits="objectBoundingBox">
                    <feGaussianBlur xmlns="http://www.w3.org/2000/svg" in="SourceGraphic" stdDeviation="17.174436251356113"/>
                    <feOffset xmlns="http://www.w3.org/2000/svg" dx="0" dy="0" result="pf_100_offsetBlur"/>
                    <feFlood xmlns="http://www.w3.org/2000/svg" flood-color="#000000" flood-opacity="0.65"/>
                    <feComposite xmlns="http://www.w3.org/2000/svg" in2="pf_100_offsetBlur" operator="in" result="pf_100_dropShadow"/>
                    <feBlend xmlns="http://www.w3.org/2000/svg" in="SourceGraphic" in2="pf_100_dropShadow" mode="normal"/>
                </filter>
            </defs>
            <g filter="url(#pcyVfwFMzSewUPR1AfBOfMZysmo5476N)">
                <linearGradient id="_lgradient_3" x1="0.04761872260854849" x2="0.9422909612648105" y1="0.9625034892776114" y2="0.06197360208798475" gradientTransform="matrix(423.266,0,0,120.474,52,246.477)" gradientUnits="userSpaceOnUse">
                    <stop offset="1.3043478260869565%" stop-opacity="1" style="stop-color:rgb(91,43,154)"/>
                    <stop offset="97.82608695652173%" stop-opacity="1" style="stop-color:rgb(147,94,214)"/>
                </linearGradient>
                <path fill="url(#_lgradient_3)" d=" M 475.266 246.477 C 475.147 246.558 475.026 246.637 474.904 246.716 L 309.605 354.146 C 283.091 371.378 240.178 371.194 213.837 353.736 L 52 246.477 L 475.266 246.477 L 475.266 246.477 Z "/>
            </g>
            <path d="M 49.26 182.473 L 215.89 74.178 C 242.037 57.185 284.368 57.375 310.361 74.603 L 475.848 184.281 C 501.841 201.508 501.716 229.291 475.569 246.284 L 308.939 354.579 C 282.792 371.572 240.461 371.382 214.468 354.154 L 48.981 244.476 C 22.988 227.249 23.113 199.466 49.26 182.473 Z" style="stroke:none;fill:#4F2686;stroke-miterlimit:10"/>
            <defs>
                <filter id="VLJieHNdtAln4RBrfvJCwmRpsWdwF4GO" width="400%" height="400%" x="-200%" y="-200%" color-interpolation-filters="sRGB" filterUnits="objectBoundingBox">
                    <feGaussianBlur xmlns="http://www.w3.org/2000/svg" in="SourceGraphic" stdDeviation="17.174436251356113"/>
                    <feOffset xmlns="http://www.w3.org/2000/svg" dx="0" dy="0" result="pf_100_offsetBlur"/>
                    <feFlood xmlns="http://www.w3.org/2000/svg" flood-color="#000000" flood-opacity="0.65"/>
                    <feComposite xmlns="http://www.w3.org/2000/svg" in2="pf_100_offsetBlur" operator="in" result="pf_100_dropShadow"/>
                    <feBlend xmlns="http://www.w3.org/2000/svg" in="SourceGraphic" in2="pf_100_dropShadow" mode="normal"/>
                </filter>
            </defs>
            <g filter="url(#VLJieHNdtAln4RBrfvJCwmRpsWdwF4GO)">
                <linearGradient id="_lgradient_4" x1="0.04761872260854849" x2="0.9422909612648105" y1="0.9625034892776114" y2="0.06197360208798475" gradientTransform="matrix(423.266,0,0,120.474,52,184.92)" gradientUnits="userSpaceOnUse">
                    <stop offset="1.3043478260869565%" stop-opacity="1" style="stop-color:rgb(91,43,154)"/>
                    <stop offset="97.82608695652173%" stop-opacity="1" style="stop-color:rgb(147,94,214)"/>
                </linearGradient>
                <path fill="url(#_lgradient_4)" d=" M 475.266 184.92 C 475.147 185.001 475.026 185.08 474.904 185.16 L 309.605 292.589 C 283.091 309.821 240.178 309.637 213.837 292.179 L 52 184.92 L 475.266 184.92 L 475.266 184.92 Z "/>
            </g>
            <defs>
                <linearGradient id="_lgradient_5" x1="0.04761872260854849" x2="0.9422909612648105" y1="0.9625034892776114" y2="0.06197360208798475">
                    <stop offset="1.3043478260869565%" style="stop-color:#5B2B9A"/>
                    <stop offset="97.82608695652173%" style="stop-color:#935ED6"/>
                </linearGradient>
            </defs>
            <path d="M 49.26 120.916 L 215.89 12.622 C 242.037 -4.372 284.368 -4.181 310.361 13.046 L 475.848 122.724 C 501.841 139.951 501.716 167.734 475.569 184.727 L 308.939 293.022 C 282.792 310.015 240.461 309.825 214.468 292.598 L 48.981 182.919 C 22.988 165.692 23.113 137.91 49.26 120.916 Z" style="stroke:none;fill:url(#_lgradient_5);stroke-miterlimit:10"/>
            <path fill="rgb(255,255,255)" d=" M 352.886 165.643 L 302.765 196.659 L 294.541 191.468 L 305.117 183.989 L 305.117 183.989 Q 306.972 182.608 306.638 181.179 L 306.638 181.179 L 306.638 181.179 Q 306.304 179.75 304.902 178.865 L 304.902 178.865 L 202.849 114.456 L 202.849 114.456 Q 201.447 113.571 199.258 113.407 L 199.258 113.407 L 199.258 113.407 Q 197.068 113.244 194.84 114.389 L 194.84 114.389 L 182.768 120.925 L 174.357 115.616 L 224.478 84.6 L 232.889 89.909 L 222.035 97.56 L 222.035 97.56 Q 220.272 98.884 220.466 100.283 L 220.466 100.283 L 220.466 100.283 Q 220.66 101.682 222.062 102.566 L 222.062 102.566 L 324.115 166.976 L 324.115 166.976 Q 325.517 167.861 327.847 168.055 L 327.847 168.055 L 327.847 168.055 Q 330.176 168.249 332.312 167.16 L 332.312 167.16 L 344.662 160.453 L 352.886 165.643 Z "/>
        </g>
    </g>
</svg>
