<svg xmlns="http://www.w3.org/2000/svg" viewBox="0 0 24 24" aria-hidden="true">
    <path
        d="M5,3H19A2,2 0 0,1 21,5V19A2,2 0 0,1 19,21H5A2,2 0 0,1 3,19V5A2,2 0 0,1 5,3M17.71,9.33C18.19,8.93 18.75,8.45 19,7.92C18.59,8.13 18.1,8.26 17.56,8.33C18.06,7.97 18.47,7.5 18.68,6.86C18.16,7.14 17.63,7.38 16.97,7.5C15.42,5.63 11.71,7.15 12.37,9.95C9.76,9.79 8.17,8.61 6.85,7.16C6.1,8.38 6.75,10.23 7.64,10.74C7.18,10.71 6.83,10.57 6.5,10.41C6.54,11.95 7.39,12.69 8.58,13.09C8.22,13.16 7.82,13.18 7.44,13.12C7.81,14.19 8.58,14.86 9.9,15C9,15.76 7.34,16.29 6,16.08C7.15,16.81 8.46,17.39 10.28,17.31C14.69,17.11 17.64,13.95 17.71,9.33Z"
        style="fill:#1da1f2;fill-opacity:1"></path>
    <path style="fill:#ffffff;fill-opacity:1;stroke-width:0.10169491"
        d="M 8.3398418,17.069811 C 7.7219962,16.919981 6.3632714,16.341813 6.442594,16.262491 6.4687602,16.236325 6.8203314,16.16809 7.2238635,16.110859 8.106527,15.985675 8.9686287,15.694897 9.5003392,15.343028 9.9514895,15.044471 9.9345455,14.939332 9.4218724,14.856136 8.8432045,14.762232 8.1712149,14.309128 7.8429563,13.791518 7.6794999,13.533774 7.5457627,13.28848 7.5457627,13.246422 c 0,-0.04206 0.2402542,-0.0903 0.5338983,-0.107209 L 8.6135593,13.108475 8.1043018,12.839587 C 7.235769,12.381002 6.7775136,11.77868 6.5796689,10.835639 c -0.067758,-0.322974 -0.059068,-0.336657 0.1676546,-0.26396 0.5137841,0.164741 0.9001341,0.223224 0.9001341,0.136255 0,-0.05004 -0.043564,-0.09098 -0.096809,-0.09098 -0.1878094,0 -0.7168819,-0.905751 -0.8712795,-1.4915959 C 6.525496,8.5414998 6.5476798,8.0052212 6.7475857,7.4762516 6.8373305,7.2387786 6.8520963,7.2462528 7.4751343,7.8445246 8.7597327,9.0780594 10.112734,9.7276379 11.867797,9.95345 l 0.508474,0.065422 0.0038,-0.6924868 c 0.0027,-0.5046004 0.0623,-0.802855 0.2195,-1.0992666 0.447783,-0.8443057 1.325759,-1.392928 2.331642,-1.4569778 0.749828,-0.047745 1.257415,0.1016271 1.717223,0.5053437 l 0.339428,0.2980216 0.592528,-0.200061 c 0.32589,-0.1100336 0.672612,-0.2310025 0.770493,-0.2688197 0.311895,-0.1205029 0.19344,0.1230695 -0.347907,0.7153904 l -0.525874,0.5753896 0.398755,-0.072953 C 18.095175,8.2823284 18.383927,8.2088615 18.517532,8.1591926 18.946051,7.999886 18.877,8.1570626 18.2543,8.7583829 l -0.608268,0.5873796 -0.06352,0.8644065 c -0.24812,3.376326 -2.466309,6.041812 -5.666299,6.808904 -1.017604,0.243938 -2.6822611,0.267554 -3.5763292,0.05074 z">
    </path>
</svg>